<mxfile host="app.diagrams.net" modified="2024-04-01T08:38:08.432Z" agent="Mozilla/5.0 (Windows NT 10.0; Win64; x64) AppleWebKit/537.36 (KHTML, like Gecko) Chrome/123.0.0.0 Safari/537.36" etag="MIgrqQE6ktV36sCn8XbV" version="24.2.1" type="device">
  <diagram name="Page-1" id="udvCW65GLaHVHVGrBcbs">
    <mxGraphModel dx="1050" dy="557" grid="1" gridSize="10" guides="1" tooltips="1" connect="1" arrows="1" fold="1" page="1" pageScale="1" pageWidth="850" pageHeight="1100" background="#CCCCCC" math="0" shadow="0">
      <root>
        <mxCell id="0" />
        <mxCell id="1" parent="0" />
        <mxCell id="PTmdwTSmmHxyZHhgt3zp-11" value="" style="verticalLabelPosition=bottom;verticalAlign=top;html=1;shape=mxgraph.flowchart.on-page_reference;" parent="1" vertex="1">
          <mxGeometry x="380" y="440" width="130" height="130" as="geometry" />
        </mxCell>
        <mxCell id="PTmdwTSmmHxyZHhgt3zp-12" value="&lt;font style=&quot;font-size: 16px;&quot;&gt;CareConnect&lt;/font&gt;" style="text;html=1;strokeColor=none;fillColor=none;align=center;verticalAlign=middle;whiteSpace=wrap;rounded=0;" parent="1" vertex="1">
          <mxGeometry x="411.25" y="480" width="67.5" height="50" as="geometry" />
        </mxCell>
        <mxCell id="PTmdwTSmmHxyZHhgt3zp-13" value="" style="verticalLabelPosition=bottom;aspect=fixed;html=1;shape=mxgraph.salesforce.employees;" parent="1" vertex="1">
          <mxGeometry x="400" y="240" width="77.6" height="80" as="geometry" />
        </mxCell>
        <mxCell id="PTmdwTSmmHxyZHhgt3zp-14" value="" style="strokeWidth=2;html=1;shape=mxgraph.flowchart.database;whiteSpace=wrap;" parent="1" vertex="1">
          <mxGeometry x="650" y="450" width="100" height="140" as="geometry" />
        </mxCell>
        <mxCell id="PTmdwTSmmHxyZHhgt3zp-15" value="" style="strokeWidth=2;html=1;shape=mxgraph.flowchart.direct_data;whiteSpace=wrap;" parent="1" vertex="1">
          <mxGeometry x="615" y="270" width="170" height="80" as="geometry" />
        </mxCell>
        <mxCell id="PTmdwTSmmHxyZHhgt3zp-16" value="&lt;font style=&quot;font-size: 15px;&quot;&gt;AWS Data Lake Formation&lt;/font&gt;" style="text;html=1;strokeColor=none;fillColor=none;align=center;verticalAlign=middle;whiteSpace=wrap;rounded=0;" parent="1" vertex="1">
          <mxGeometry x="660" y="295" width="60" height="30" as="geometry" />
        </mxCell>
        <mxCell id="PTmdwTSmmHxyZHhgt3zp-17" value="&lt;font style=&quot;font-size: 14px;&quot;&gt;AWS Data Firehose&lt;br&gt;&lt;/font&gt;" style="text;html=1;strokeColor=none;fillColor=none;align=center;verticalAlign=middle;whiteSpace=wrap;rounded=0;" parent="1" vertex="1">
          <mxGeometry x="670" y="520" width="60" height="30" as="geometry" />
        </mxCell>
        <mxCell id="PTmdwTSmmHxyZHhgt3zp-26" value="" style="edgeStyle=segmentEdgeStyle;endArrow=classic;html=1;curved=0;rounded=0;endSize=8;startSize=8;" parent="1" source="PTmdwTSmmHxyZHhgt3zp-13" edge="1">
          <mxGeometry width="50" height="50" relative="1" as="geometry">
            <mxPoint x="380" y="290" as="sourcePoint" />
            <mxPoint x="377" y="510" as="targetPoint" />
            <Array as="points">
              <mxPoint x="340" y="290" />
              <mxPoint x="340" y="510" />
              <mxPoint x="377" y="510" />
            </Array>
          </mxGeometry>
        </mxCell>
        <mxCell id="PTmdwTSmmHxyZHhgt3zp-28" value="" style="edgeStyle=segmentEdgeStyle;endArrow=classic;html=1;curved=0;rounded=0;endSize=8;startSize=8;" parent="1" source="PTmdwTSmmHxyZHhgt3zp-11" edge="1">
          <mxGeometry width="50" height="50" relative="1" as="geometry">
            <mxPoint x="550" y="560" as="sourcePoint" />
            <mxPoint x="480" y="290" as="targetPoint" />
            <Array as="points">
              <mxPoint x="550" y="500" />
              <mxPoint x="550" y="290" />
            </Array>
          </mxGeometry>
        </mxCell>
        <mxCell id="PTmdwTSmmHxyZHhgt3zp-29" value="" style="verticalLabelPosition=bottom;aspect=fixed;html=1;shape=mxgraph.salesforce.social_studio;" parent="1" vertex="1">
          <mxGeometry x="60" y="475" width="60" height="60" as="geometry" />
        </mxCell>
        <mxCell id="PTmdwTSmmHxyZHhgt3zp-30" value="" style="edgeStyle=segmentEdgeStyle;endArrow=classic;html=1;curved=0;rounded=0;endSize=8;startSize=8;entryX=0;entryY=0.357;entryDx=0;entryDy=0;entryPerimeter=0;startArrow=classic;startFill=0;" parent="1" target="PTmdwTSmmHxyZHhgt3zp-14" edge="1">
          <mxGeometry width="50" height="50" relative="1" as="geometry">
            <mxPoint x="510" y="530" as="sourcePoint" />
            <mxPoint x="640" y="500" as="targetPoint" />
            <Array as="points">
              <mxPoint x="610" y="530" />
              <mxPoint x="610" y="500" />
            </Array>
          </mxGeometry>
        </mxCell>
        <mxCell id="PTmdwTSmmHxyZHhgt3zp-31" value="" style="edgeStyle=segmentEdgeStyle;endArrow=classic;html=1;curved=0;rounded=0;endSize=8;startSize=8;exitX=0;exitY=0.85;exitDx=0;exitDy=0;exitPerimeter=0;entryX=0.775;entryY=0.912;entryDx=0;entryDy=0;entryPerimeter=0;startArrow=blockThin;startFill=0;" parent="1" source="PTmdwTSmmHxyZHhgt3zp-14" target="PTmdwTSmmHxyZHhgt3zp-11" edge="1">
          <mxGeometry width="50" height="50" relative="1" as="geometry">
            <mxPoint x="640" y="570" as="sourcePoint" />
            <mxPoint x="480" y="570" as="targetPoint" />
            <Array as="points">
              <mxPoint x="590" y="569" />
              <mxPoint x="590" y="630" />
              <mxPoint x="481" y="630" />
            </Array>
          </mxGeometry>
        </mxCell>
        <mxCell id="PTmdwTSmmHxyZHhgt3zp-32" value="" style="edgeStyle=segmentEdgeStyle;endArrow=classic;html=1;curved=0;rounded=0;endSize=8;startSize=8;entryX=0.382;entryY=0.992;entryDx=0;entryDy=0;entryPerimeter=0;exitX=0.382;exitY=0.992;exitDx=0;exitDy=0;exitPerimeter=0;" parent="1" source="PTmdwTSmmHxyZHhgt3zp-11" edge="1">
          <mxGeometry width="50" height="50" relative="1" as="geometry">
            <mxPoint x="430" y="610" as="sourcePoint" />
            <mxPoint x="80" y="540" as="targetPoint" />
            <Array as="points">
              <mxPoint x="430" y="650" />
              <mxPoint x="80" y="650" />
            </Array>
          </mxGeometry>
        </mxCell>
        <mxCell id="PTmdwTSmmHxyZHhgt3zp-33" value="" style="edgeStyle=segmentEdgeStyle;endArrow=classic;html=1;curved=0;rounded=0;endSize=8;startSize=8;entryX=0.145;entryY=0.855;entryDx=0;entryDy=0;entryPerimeter=0;exitX=1.013;exitY=0.487;exitDx=0;exitDy=0;exitPerimeter=0;" parent="1" source="PTmdwTSmmHxyZHhgt3zp-29" target="PTmdwTSmmHxyZHhgt3zp-11" edge="1">
          <mxGeometry width="50" height="50" relative="1" as="geometry">
            <mxPoint x="270.78999999999996" y="694.1999999999998" as="sourcePoint" />
            <mxPoint x="170.78999999999996" y="534.1999999999998" as="targetPoint" />
            <Array as="points">
              <mxPoint x="191" y="504" />
              <mxPoint x="191" y="551" />
            </Array>
          </mxGeometry>
        </mxCell>
        <mxCell id="PTmdwTSmmHxyZHhgt3zp-35" value="" style="shape=image;html=1;verticalLabelPosition=bottom;verticalAlign=top;imageAspect=0;image=img/clipart/Gear_128x128.png" parent="1" vertex="1">
          <mxGeometry x="795" y="360" width="50" height="60" as="geometry" />
        </mxCell>
        <mxCell id="PTmdwTSmmHxyZHhgt3zp-36" value="&lt;font style=&quot;font-size: 14px;&quot;&gt;ETL&lt;/font&gt;" style="text;html=1;strokeColor=none;fillColor=none;align=center;verticalAlign=middle;whiteSpace=wrap;rounded=0;" parent="1" vertex="1">
          <mxGeometry x="740" y="390" width="60" height="30" as="geometry" />
        </mxCell>
        <mxCell id="PTmdwTSmmHxyZHhgt3zp-37" value="" style="html=1;whiteSpace=wrap;shape=isoCube2;backgroundOutline=1;isoAngle=15;" parent="1" vertex="1">
          <mxGeometry x="525" y="110" width="90" height="100" as="geometry" />
        </mxCell>
        <mxCell id="PTmdwTSmmHxyZHhgt3zp-38" value="" style="shape=image;html=1;verticalLabelPosition=bottom;verticalAlign=top;imageAspect=0;image=img/clipart/Gear_128x128.png" parent="1" vertex="1">
          <mxGeometry x="300" y="80" width="50" height="60" as="geometry" />
        </mxCell>
        <mxCell id="PTmdwTSmmHxyZHhgt3zp-41" value="" style="edgeStyle=segmentEdgeStyle;endArrow=classic;html=1;curved=0;rounded=0;endSize=8;startSize=8;entryX=0.971;entryY=0.25;entryDx=0;entryDy=0;entryPerimeter=0;" parent="1" target="PTmdwTSmmHxyZHhgt3zp-15" edge="1">
          <mxGeometry width="50" height="50" relative="1" as="geometry">
            <mxPoint x="820" y="350" as="sourcePoint" />
            <mxPoint x="820" y="280" as="targetPoint" />
            <Array as="points">
              <mxPoint x="820" y="350" />
              <mxPoint x="820" y="290" />
            </Array>
          </mxGeometry>
        </mxCell>
        <mxCell id="PTmdwTSmmHxyZHhgt3zp-49" value="" style="edgeStyle=segmentEdgeStyle;endArrow=classic;html=1;curved=0;rounded=0;endSize=8;startSize=8;exitX=0.636;exitY=0.993;exitDx=0;exitDy=0;exitPerimeter=0;entryX=0.5;entryY=1;entryDx=0;entryDy=0;" parent="1" edge="1">
          <mxGeometry width="50" height="50" relative="1" as="geometry">
            <mxPoint x="712.3" y="589.02" as="sourcePoint" />
            <mxPoint x="818.7" y="420" as="targetPoint" />
            <Array as="points">
              <mxPoint x="719" y="589" />
              <mxPoint x="719" y="700" />
              <mxPoint x="810" y="700" />
              <mxPoint x="810" y="520" />
              <mxPoint x="819" y="520" />
            </Array>
          </mxGeometry>
        </mxCell>
        <mxCell id="PTmdwTSmmHxyZHhgt3zp-50" value="" style="html=1;whiteSpace=wrap;shape=isoCube2;backgroundOutline=1;isoAngle=15;" parent="1" vertex="1">
          <mxGeometry x="645" y="110" width="90" height="100" as="geometry" />
        </mxCell>
        <mxCell id="PTmdwTSmmHxyZHhgt3zp-51" value="" style="html=1;whiteSpace=wrap;shape=isoCube2;backgroundOutline=1;isoAngle=15;" parent="1" vertex="1">
          <mxGeometry x="400" y="110" width="90" height="100" as="geometry" />
        </mxCell>
        <mxCell id="PTmdwTSmmHxyZHhgt3zp-53" value="" style="endArrow=none;html=1;rounded=0;entryX=0.007;entryY=0.334;entryDx=0;entryDy=0;entryPerimeter=0;exitX=1.04;exitY=0.358;exitDx=0;exitDy=0;exitPerimeter=0;" parent="1" source="PTmdwTSmmHxyZHhgt3zp-51" target="PTmdwTSmmHxyZHhgt3zp-37" edge="1">
          <mxGeometry width="50" height="50" relative="1" as="geometry">
            <mxPoint x="430" y="260" as="sourcePoint" />
            <mxPoint x="480" y="210" as="targetPoint" />
          </mxGeometry>
        </mxCell>
        <mxCell id="PTmdwTSmmHxyZHhgt3zp-55" value="" style="endArrow=none;html=1;rounded=0;exitX=0.993;exitY=0.382;exitDx=0;exitDy=0;exitPerimeter=0;entryX=0;entryY=0.5;entryDx=0;entryDy=0;entryPerimeter=0;" parent="1" source="PTmdwTSmmHxyZHhgt3zp-37" target="PTmdwTSmmHxyZHhgt3zp-50" edge="1">
          <mxGeometry width="50" height="50" relative="1" as="geometry">
            <mxPoint x="430" y="260" as="sourcePoint" />
            <mxPoint x="640" y="160" as="targetPoint" />
          </mxGeometry>
        </mxCell>
        <mxCell id="PTmdwTSmmHxyZHhgt3zp-56" value="&lt;font style=&quot;font-size: 15px;&quot;&gt;Patients Mart&lt;/font&gt;" style="text;html=1;strokeColor=none;fillColor=none;align=center;verticalAlign=middle;whiteSpace=wrap;rounded=0;" parent="1" vertex="1">
          <mxGeometry x="555" y="60" width="60" height="30" as="geometry" />
        </mxCell>
        <mxCell id="PTmdwTSmmHxyZHhgt3zp-57" value="" style="verticalLabelPosition=bottom;aspect=fixed;html=1;shape=mxgraph.salesforce.analytics2;" parent="1" vertex="1">
          <mxGeometry x="170" y="150" width="60" height="60" as="geometry" />
        </mxCell>
        <mxCell id="PTmdwTSmmHxyZHhgt3zp-58" value="&lt;font style=&quot;font-size: 15px;&quot;&gt;AWS Sage Maker&lt;/font&gt;" style="text;html=1;strokeColor=none;fillColor=none;align=center;verticalAlign=middle;whiteSpace=wrap;rounded=0;" parent="1" vertex="1">
          <mxGeometry x="100" y="120" width="60" height="30" as="geometry" />
        </mxCell>
        <mxCell id="PTmdwTSmmHxyZHhgt3zp-59" value="" style="endArrow=classic;html=1;rounded=0;exitX=0;exitY=0.5;exitDx=0;exitDy=0;exitPerimeter=0;entryX=1.008;entryY=0.617;entryDx=0;entryDy=0;entryPerimeter=0;" parent="1" source="PTmdwTSmmHxyZHhgt3zp-51" target="PTmdwTSmmHxyZHhgt3zp-38" edge="1">
          <mxGeometry width="50" height="50" relative="1" as="geometry">
            <mxPoint x="430" y="360" as="sourcePoint" />
            <mxPoint x="370" y="130" as="targetPoint" />
          </mxGeometry>
        </mxCell>
        <mxCell id="PTmdwTSmmHxyZHhgt3zp-61" value="" style="endArrow=classic;startArrow=classic;html=1;rounded=0;exitX=0.954;exitY=0.237;exitDx=0;exitDy=0;exitPerimeter=0;entryX=0;entryY=0.75;entryDx=0;entryDy=0;" parent="1" source="PTmdwTSmmHxyZHhgt3zp-57" target="PTmdwTSmmHxyZHhgt3zp-38" edge="1">
          <mxGeometry width="50" height="50" relative="1" as="geometry">
            <mxPoint x="430" y="360" as="sourcePoint" />
            <mxPoint x="480" y="310" as="targetPoint" />
            <Array as="points">
              <mxPoint x="270" y="160" />
            </Array>
          </mxGeometry>
        </mxCell>
        <mxCell id="PTmdwTSmmHxyZHhgt3zp-62" value="" style="endArrow=classic;html=1;rounded=0;exitX=0.949;exitY=0.088;exitDx=0;exitDy=0;exitPerimeter=0;entryX=0.5;entryY=1;entryDx=0;entryDy=0;" parent="1" source="PTmdwTSmmHxyZHhgt3zp-15" target="TX2Ast-f3qc4IRG_Ohm--6" edge="1">
          <mxGeometry width="50" height="50" relative="1" as="geometry">
            <mxPoint x="430" y="360" as="sourcePoint" />
            <mxPoint x="940" y="250" as="targetPoint" />
          </mxGeometry>
        </mxCell>
        <mxCell id="PTmdwTSmmHxyZHhgt3zp-67" value="" style="edgeStyle=segmentEdgeStyle;endArrow=classic;html=1;curved=0;rounded=0;endSize=8;startSize=8;entryX=0;entryY=0.697;entryDx=0;entryDy=0;entryPerimeter=0;" parent="1" source="PTmdwTSmmHxyZHhgt3zp-57" target="PTmdwTSmmHxyZHhgt3zp-11" edge="1">
          <mxGeometry width="50" height="50" relative="1" as="geometry">
            <mxPoint x="260" y="210" as="sourcePoint" />
            <mxPoint x="350" y="530" as="targetPoint" />
            <Array as="points">
              <mxPoint x="260" y="180" />
              <mxPoint x="260" y="531" />
            </Array>
          </mxGeometry>
        </mxCell>
        <mxCell id="PTmdwTSmmHxyZHhgt3zp-68" value="&lt;font style=&quot;font-size: 14px;&quot;&gt;Patients Old Records&lt;/font&gt;" style="text;html=1;strokeColor=none;fillColor=none;align=center;verticalAlign=middle;whiteSpace=wrap;rounded=0;" parent="1" vertex="1">
          <mxGeometry x="180" y="660" width="60" height="30" as="geometry" />
        </mxCell>
        <mxCell id="PTmdwTSmmHxyZHhgt3zp-69" value="&lt;font style=&quot;font-size: 14px;&quot;&gt;Generate Prescriptions&lt;/font&gt;" style="text;html=1;strokeColor=none;fillColor=none;align=center;verticalAlign=middle;whiteSpace=wrap;rounded=0;" parent="1" vertex="1">
          <mxGeometry x="150" y="560" width="60" height="30" as="geometry" />
        </mxCell>
        <mxCell id="PTmdwTSmmHxyZHhgt3zp-70" value="Age" style="text;html=1;strokeColor=none;fillColor=none;align=center;verticalAlign=middle;whiteSpace=wrap;rounded=0;" parent="1" vertex="1">
          <mxGeometry x="411.25" y="120" width="60" height="30" as="geometry" />
        </mxCell>
        <mxCell id="PTmdwTSmmHxyZHhgt3zp-71" value="Symptoms" style="text;html=1;strokeColor=none;fillColor=none;align=center;verticalAlign=middle;whiteSpace=wrap;rounded=0;" parent="1" vertex="1">
          <mxGeometry x="540" y="120" width="60" height="30" as="geometry" />
        </mxCell>
        <mxCell id="PTmdwTSmmHxyZHhgt3zp-72" value="Disease" style="text;html=1;strokeColor=none;fillColor=none;align=center;verticalAlign=middle;whiteSpace=wrap;rounded=0;" parent="1" vertex="1">
          <mxGeometry x="660" y="120" width="60" height="30" as="geometry" />
        </mxCell>
        <mxCell id="PTmdwTSmmHxyZHhgt3zp-73" value="Book an Appointment" style="text;html=1;strokeColor=none;fillColor=none;align=center;verticalAlign=middle;whiteSpace=wrap;rounded=0;" parent="1" vertex="1">
          <mxGeometry x="350" y="350" width="60" height="30" as="geometry" />
        </mxCell>
        <mxCell id="PTmdwTSmmHxyZHhgt3zp-74" value="Appointment&lt;br&gt;Confirmations" style="text;html=1;strokeColor=none;fillColor=none;align=center;verticalAlign=middle;whiteSpace=wrap;rounded=0;" parent="1" vertex="1">
          <mxGeometry x="477.6" y="350" width="60" height="30" as="geometry" />
        </mxCell>
        <mxCell id="TX2Ast-f3qc4IRG_Ohm--3" value="AWS Lambda" style="text;html=1;align=center;verticalAlign=middle;whiteSpace=wrap;rounded=0;" vertex="1" parent="1">
          <mxGeometry x="870" y="375" width="60" height="30" as="geometry" />
        </mxCell>
        <mxCell id="TX2Ast-f3qc4IRG_Ohm--4" value="AWS Redis (DataWarehouse/ Data Marts)" style="text;html=1;align=center;verticalAlign=middle;whiteSpace=wrap;rounded=0;" vertex="1" parent="1">
          <mxGeometry x="660" y="60" width="60" height="30" as="geometry" />
        </mxCell>
        <mxCell id="TX2Ast-f3qc4IRG_Ohm--5" value="Governance , Security, and Compliance" style="text;html=1;align=center;verticalAlign=middle;whiteSpace=wrap;rounded=0;" vertex="1" parent="1">
          <mxGeometry x="615" y="370" width="60" height="30" as="geometry" />
        </mxCell>
        <mxCell id="TX2Ast-f3qc4IRG_Ohm--6" value="" style="shape=image;html=1;verticalLabelPosition=bottom;verticalAlign=top;imageAspect=0;image=img/clipart/Gear_128x128.png" vertex="1" parent="1">
          <mxGeometry x="845" y="150" width="50" height="60" as="geometry" />
        </mxCell>
        <mxCell id="TX2Ast-f3qc4IRG_Ohm--7" value="" style="endArrow=classic;html=1;rounded=0;exitX=1;exitY=1;exitDx=0;exitDy=0;entryX=0.75;entryY=0;entryDx=0;entryDy=0;" edge="1" parent="1" source="TX2Ast-f3qc4IRG_Ohm--9" target="PTmdwTSmmHxyZHhgt3zp-38">
          <mxGeometry width="50" height="50" relative="1" as="geometry">
            <mxPoint x="786" y="287" as="sourcePoint" />
            <mxPoint x="310" y="20" as="targetPoint" />
            <Array as="points">
              <mxPoint x="860" y="20" />
              <mxPoint x="590" y="10" />
            </Array>
          </mxGeometry>
        </mxCell>
        <mxCell id="TX2Ast-f3qc4IRG_Ohm--8" value="AWS Lambda" style="text;html=1;align=center;verticalAlign=middle;whiteSpace=wrap;rounded=0;" vertex="1" parent="1">
          <mxGeometry x="900" y="150" width="60" height="30" as="geometry" />
        </mxCell>
        <mxCell id="TX2Ast-f3qc4IRG_Ohm--9" value="&lt;font style=&quot;font-size: 14px;&quot;&gt;ETL&lt;/font&gt;" style="text;html=1;strokeColor=none;fillColor=none;align=center;verticalAlign=middle;whiteSpace=wrap;rounded=0;" vertex="1" parent="1">
          <mxGeometry x="830" y="110" width="60" height="30" as="geometry" />
        </mxCell>
        <mxCell id="TX2Ast-f3qc4IRG_Ohm--11" value="Trigger" style="text;html=1;align=center;verticalAlign=middle;whiteSpace=wrap;rounded=0;" vertex="1" parent="1">
          <mxGeometry x="880" y="40" width="60" height="30" as="geometry" />
        </mxCell>
        <mxCell id="TX2Ast-f3qc4IRG_Ohm--12" value="AWS Glue" style="text;html=1;align=center;verticalAlign=middle;whiteSpace=wrap;rounded=0;" vertex="1" parent="1">
          <mxGeometry x="250" y="60" width="60" height="30" as="geometry" />
        </mxCell>
        <mxCell id="TX2Ast-f3qc4IRG_Ohm--14" value="&lt;font style=&quot;font-size: 15px;&quot;&gt;AWS OpenSearch&amp;nbsp;&lt;/font&gt;" style="text;html=1;strokeColor=none;fillColor=none;align=center;verticalAlign=middle;whiteSpace=wrap;rounded=0;" vertex="1" parent="1">
          <mxGeometry x="150" y="230" width="60" height="30" as="geometry" />
        </mxCell>
        <mxCell id="TX2Ast-f3qc4IRG_Ohm--15" value="Data Ingestion" style="text;html=1;align=center;verticalAlign=middle;whiteSpace=wrap;rounded=0;" vertex="1" parent="1">
          <mxGeometry x="620" y="600" width="60" height="30" as="geometry" />
        </mxCell>
      </root>
    </mxGraphModel>
  </diagram>
</mxfile>
